#!OML:ASF C:\Vicon Data\Big\jianyuan-13\jianyuan\Session 1\Capture.male.ASF
:FULLY-SPECIFIED
:DEGREES
251
root -7.007969 17.134865 2.019186 7.674405 8.358537 4.682933
lowerback -12.541186 -4.131861 -7.108889 
upperback 0.211826 -4.464324 0.273275 
thorax 7.850704 -2.452204 3.419708 
lowerneck 2.349750 1.196296 3.756832 
upperneck -3.852454 1.482840 -6.561587 
head -1.550611 0.813137 -2.793586 
rclavicle 0.000000 0.000000 
rhumerus -53.352753 -17.905803 -75.085082 
rradius 32.089590 
rwrist 25.605388 
rhand -17.042106 -17.626023 
rfingers 0.000000 
rthumb 9.194710 -47.405594 
lclavicle 0.000000 0.000000 
lhumerus -14.472911 -4.088028 92.403630 
lradius 56.366909 
lwrist -21.699930 
lhand -18.975788 2.339529 
lfingers 0.000000 
lthumb 7.328512 32.192575 
rfemur -44.728076 2.601750 9.425770 
rtibia 23.706411 
rfoot -9.879170 -10.302234 
rtoes -38.590692 
lfemur 10.065851 -4.676843 -27.730023 
ltibia 14.483816 
lfoot -17.491421 -3.816670 
ltoes -31.633557 
252
root -7.014409 17.123607 2.118460 7.800109 8.463065 4.773633
lowerback -12.592054 -4.152253 -7.155226 
upperback 0.178579 -4.482026 0.283209 
thorax 7.850254 -2.461776 3.450687 
lowerneck 2.351902 1.195986 3.706496 
upperneck -3.937755 1.476754 -6.560201 
head -1.579025 0.811581 -2.785057 
rclavicle 0.000000 0.000000 
rhumerus -53.336085 -17.951141 -75.006691 
rradius 32.102148 
rwrist 25.637735 
rhand -17.310064 -17.728230 
rfingers 0.000000 
rthumb 8.936126 -47.518929 
lclavicle 0.000000 0.000000 
lhumerus -14.545698 -4.032632 92.516354 
lradius 56.458582 
lwrist -21.671822 
lhand -19.068704 2.351746 
lfingers 0.000000 
lthumb 7.238816 32.207960 
rfemur -44.532833 2.333873 9.580868 
rtibia 23.767540 
rfoot -9.775277 -10.018898 
rtoes -38.840203 
lfemur 10.278131 -4.770825 -27.707514 
ltibia 14.555682 
lfoot -17.273195 -3.952390 
ltoes -31.699251 
253
root -7.025837 17.111374 2.222828 7.924098 8.576548 4.770023
lowerback -12.679861 -4.195186 -7.107071 
upperback 0.157530 -4.540882 0.300250 
thorax 7.881727 -2.488796 3.425038 
lowerneck 2.360665 1.241868 3.659595 
upperneck -4.081853 1.530723 -6.546948 
head -1.624285 0.840312 -2.775279 
rclavicle 0.000000 0.000000 
rhumerus -53.279011 -18.050367 -74.949591 
rradius 32.084498 
rwrist 25.696412 
rhand -17.236751 -17.778666 
rfingers 0.000000 
rthumb 9.006935 -47.566359 
lclavicle 0.000000 0.000000 
lhumerus -14.582298 -3.950025 92.534938 
lradius 56.499557 
lwrist -21.605804 
lhand -19.054126 2.283092 
lfingers 0.000000 
lthumb 7.252916 32.138796 
rfemur -44.322144 2.354707 9.703591 
rtibia 23.866444 
rfoot -9.910740 -10.016285 
rtoes -38.547408 
lfemur 10.510528 -4.776811 -27.523410 
ltibia 14.551348 
lfoot -16.935294 -4.178388 
ltoes -31.459884 
254
root -7.036260 17.102302 2.327517 8.063521 8.657276 4.770662
lowerback -12.785101 -4.176243 -7.060539 
upperback 0.136214 -4.511660 0.264861 
thorax 7.907711 -2.471677 3.362048 
lowerneck 2.370088 1.220468 3.797989 
upperneck -4.183153 1.505709 -6.494061 
head -1.659937 0.825562 -2.784607 
rclavicle 0.000000 0.000000 
rhumerus -53.297105 -18.245112 -74.940045 
rradius 32.108031 
rwrist 25.799790 
rhand -17.311809 -17.835030 
rfingers 0.000000 
rthumb 8.934478 -47.625898 
lclavicle 0.000000 0.000000 
lhumerus -14.648718 -4.009079 92.547509 
lradius 56.526495 
lwrist -21.532187 
lhand -19.130680 2.356208 
lfingers 0.000000 
lthumb 7.179040 32.214407 
rfemur -44.125969 2.323856 9.881788 
rtibia 23.920942 
rfoot -9.922553 -10.006554 
rtoes -38.604586 
lfemur 10.692391 -4.831358 -27.373149 
ltibia 14.622875 
lfoot -16.625017 -4.293942 
ltoes -31.472721 
